<svg width="167" height="256" xmlns="http://www.w3.org/2000/svg">
 <title/>
 <desc/>

 <g>
  <title>background</title>
  <rect fill="none" id="canvas_background" height="402" width="582" y="-1" x="-1"/>
 </g>
 <g>
  <title>Layer 1</title>
  <path id="Logo" d="m84.17403,0l-56.23709,81.8682l-27.93694,123.15972l83.56247,50.60421l0.6046,0.36787l82.79308,-49.81743l-27.85222,-124.31437l-54.9339,-81.8682zm-53.67944,81.8682l52.50738,-76.0775l0,56.21041l-38.06892,65.32118l-14.43846,-45.45409zm54.8283,-19.86013l0,-56.14426l51.24015,76.00439l-13.99864,45.11059l-37.24151,-64.97072zm-39.44175,68.29777l38.27316,-65.67049l37.47129,65.37109l-22.74852,73.30283l-29.80412,0l-23.19181,-73.00343zm-16.56442,-44.10564l13.98356,43.92344l-39.18064,67.23015l25.19708,-111.15359zm94.80154,43.48943l13.45206,-43.39195l25.22146,110.85999l-38.67352,-67.46804zm-0.93881,3.02764l40.46295,70.592l-62.34925,0l21.8863,-70.592zm-78.92875,0.38876l22.35047,70.20324l-63.26484,0l40.91437,-70.20324zm56.32297,72.52416l60.97293,0l-75.35917,46.39987l14.38624,-46.39987zm-30.76498,0l28.3489,0l-14.00793,45.13845l-14.34097,-45.13845zm-64.33596,0l61.86766,0l14.77731,46.4138l-76.64497,-46.4138z"/>
 </g>
</svg>